# xmcd
#
# Track frame offsets:
#	150
#	12549
#	30716
#	52101
#	69892
#	95979
#	112052
#	134120
#	152175
#	169415
#	183601
#
# Disc length: 2713 seconds
#
# Revision: 0
# Processed by: cddbd v1.5.2PL0 Copyright (c) Steve Scherf et al.
# Submitted via: dBpowerAMP V4.0
#
DISCID=aa0a970b
DTITLE=Robin and Friends - Never Been In Chicago
DYEAR=2003
DGENRE=Blues
TTITLE0=Bengels Boogie
TTITLE1=I'm Ready
TTITLE2=00 49 (Piano Version)
TTITLE3=Fever
TTITLE4=Tough Enough
TTITLE5=Thrill is gone
TTITLE6=00 49 (Band Version)
TTITLE7=Walking by Myself
TTITLE8=Bring it on home to me
TTITLE9=Johnny B. Goode
TTITLE10=Amazing Graze
EXTD=
EXTT0=
EXTT1=
EXTT2=
EXTT3=
EXTT4=
EXTT5=
EXTT6=
EXTT7=
EXTT8=
EXTT9=
EXTT10=
PLAYORDER=
